# xmcd
#
# Track frame offsets:
#	150
#	12858
#	23052
#	30092
#	41749
#	55587
#	65963
#	78064
#	91271
#	99861
#	110011
#	118820
#	126420
#	136494
#	145860
#	148805
#
# Disc length: 2121 seconds
#
# Revision: 1
# Processed by: cddbd v1.5.2PL0 Copyright (c) Steve Scherf et al.
# Submitted via: EZCDAudioConverter 2.1.7.1
#
DISCID=d7084710
DTITLE=The Bangles - Ladies and Gentlemen... The Bangles!
DYEAR=2016
DGENRE=
TTITLE0=The Bangs - Bitchen Summer/Speedway
TTITLE1=The Bangs - Getting Out Of Hand
TTITLE2=The Bangs - Call On Me
TTITLE3=The Bangles - The Real World
TTITLE4=The Bangles - I'm In Line 
TTITLE5=The Bangles - Want You
TTITLE6=The Bangles - Mary Street 
TTITLE7=The Bangles - How Is The Air Up There? 
TTITLE8=The Bangles - Outside Chance [Demo]
TTITLE9=The Bangles - Steppin' Out [Demo]
TTITLE10=The Bangles - The Real World [Demo]
TTITLE11=The Bangles - Call On Me [Demo]
TTITLE12=The Bangles - Tell Me [Live]
TTITLE13=The Bangles - 7 and 7 Is [Live]
TTITLE14=The Bangles - No Mag Commercial 
TTITLE15=The Bangles - The Rock and Roll Alternative Program Theme Song
EXTD=
EXTT0=
EXTT1=
EXTT2=
EXTT3=
EXTT4=
EXTT5=
EXTT6=
EXTT7=
EXTT8=
EXTT9=
EXTT10=
EXTT11=
EXTT12=
EXTT13=
EXTT14=
EXTT15=
PLAYORDER=
